<?xml version="1.0" encoding="UTF-8" standalone="no"?><svg xmlns="http://www.w3.org/2000/svg" xmlns:xlink="http://www.w3.org/1999/xlink" contentScriptType="application/ecmascript" contentStyleType="text/css" height="430px" preserveAspectRatio="none" style="width:735px;height:430px;" version="1.1" viewBox="0 0 735 430" width="735px" zoomAndPan="magnify"><defs><filter height="300%" id="ftf6fimw2aelm" width="300%" x="-1" y="-1"><feGaussianBlur result="blurOut" stdDeviation="2.0"/><feColorMatrix in="blurOut" result="blurOut2" type="matrix" values="0 0 0 0 0 0 0 0 0 0 0 0 0 0 0 0 0 0 .4 0"/><feOffset dx="4.0" dy="4.0" in="blurOut2" result="blurOut3"/><feBlend in="SourceGraphic" in2="blurOut3" mode="normal"/></filter></defs><g><!--cluster new_york--><polygon fill="#FFFFFF" filter="url(#ftf6fimw2aelm)" points="14,322,96,322,103,344.2969,606,344.2969,606,418,14,418,14,322" style="stroke: #000000; stroke-width: 1.5;"/><line style="stroke: #000000; stroke-width: 1.5;" x1="14" x2="103" y1="344.2969" y2="344.2969"/><text fill="#000000" font-family="sans-serif" font-size="14" font-weight="bold" lengthAdjust="spacingAndGlyphs" textLength="76" x="18" y="336.9951">new_york</text><!--cluster pizza--><polygon fill="#FFFFFF" filter="url(#ftf6fimw2aelm)" points="268,16.5,315,16.5,322,38.7969,713,38.7969,713,99.5,268,99.5,268,16.5" style="stroke: #000000; stroke-width: 1.5;"/><line style="stroke: #000000; stroke-width: 1.5;" x1="268" x2="322" y1="38.7969" y2="38.7969"/><text fill="#000000" font-family="sans-serif" font-size="14" font-weight="bold" lengthAdjust="spacingAndGlyphs" textLength="41" x="272" y="31.4951">pizza</text><!--class NYPizzaStore--><rect fill="#FEFECE" filter="url(#ftf6fimw2aelm)" height="60.8047" id="NYPizzaStore" style="stroke: #A80036; stroke-width: 1.5;" width="118" x="22" y="349"/><ellipse cx="40.15" cy="365" fill="#ADD1B2" rx="11" ry="11" style="stroke: #A80036; stroke-width: 1.0;"/><path d="M43.1188,370.6406 Q42.5406,370.9375 41.9,371.0781 Q41.2594,371.2344 40.5563,371.2344 Q38.0563,371.2344 36.7281,369.5938 Q35.4156,367.9375 35.4156,364.8125 Q35.4156,361.6875 36.7281,360.0313 Q38.0563,358.375 40.5563,358.375 Q41.2594,358.375 41.9,358.5313 Q42.5563,358.6875 43.1188,358.9844 L43.1188,361.7031 Q42.4938,361.125 41.9,360.8594 Q41.3063,360.5781 40.6813,360.5781 Q39.3375,360.5781 38.65,361.6563 Q37.9625,362.7188 37.9625,364.8125 Q37.9625,366.9063 38.65,367.9844 Q39.3375,369.0469 40.6813,369.0469 Q41.3063,369.0469 41.9,368.7813 Q42.4938,368.5 43.1188,367.9219 L43.1188,370.6406 Z "/><text fill="#000000" font-family="sans-serif" font-size="12" lengthAdjust="spacingAndGlyphs" textLength="79" x="54.85" y="369.1543">NYPizzaStore</text><line style="stroke: #A80036; stroke-width: 1.5;" x1="23" x2="139" y1="381" y2="381"/><line style="stroke: #A80036; stroke-width: 1.5;" x1="23" x2="139" y1="389" y2="389"/><text fill="#000000" font-family="sans-serif" font-size="11" lengthAdjust="spacingAndGlyphs" textLength="106" x="28" y="403.2104">createPizza(): Pizza</text><!--class SimpleNewYorkPizzaFactory--><rect fill="#FEFECE" filter="url(#ftf6fimw2aelm)" height="48" id="SimpleNewYorkPizzaFactory" style="stroke: #A80036; stroke-width: 1.5;" width="201" x="175.5" y="355.5"/><ellipse cx="190.5" cy="371.5" fill="#ADD1B2" rx="11" ry="11" style="stroke: #A80036; stroke-width: 1.0;"/><path d="M193.4688,377.1406 Q192.8906,377.4375 192.25,377.5781 Q191.6094,377.7344 190.9063,377.7344 Q188.4063,377.7344 187.0781,376.0938 Q185.7656,374.4375 185.7656,371.3125 Q185.7656,368.1875 187.0781,366.5313 Q188.4063,364.875 190.9063,364.875 Q191.6094,364.875 192.25,365.0313 Q192.9063,365.1875 193.4688,365.4844 L193.4688,368.2031 Q192.8438,367.625 192.25,367.3594 Q191.6563,367.0781 191.0313,367.0781 Q189.6875,367.0781 189,368.1563 Q188.3125,369.2188 188.3125,371.3125 Q188.3125,373.4063 189,374.4844 Q189.6875,375.5469 191.0313,375.5469 Q191.6563,375.5469 192.25,375.2813 Q192.8438,375 193.4688,374.4219 L193.4688,377.1406 Z "/><text fill="#000000" font-family="sans-serif" font-size="12" lengthAdjust="spacingAndGlyphs" textLength="169" x="204.5" y="375.6543">SimpleNewYorkPizzaFactory</text><line style="stroke: #A80036; stroke-width: 1.5;" x1="176.5" x2="375.5" y1="387.5" y2="387.5"/><line style="stroke: #A80036; stroke-width: 1.5;" x1="176.5" x2="375.5" y1="395.5" y2="395.5"/><!--class NYPizzaIngredientFactory--><rect fill="#FEFECE" filter="url(#ftf6fimw2aelm)" height="48" id="NYPizzaIngredientFactory" style="stroke: #A80036; stroke-width: 1.5;" width="187" x="411.5" y="355.5"/><ellipse cx="426.5" cy="371.5" fill="#ADD1B2" rx="11" ry="11" style="stroke: #A80036; stroke-width: 1.0;"/><path d="M429.4688,377.1406 Q428.8906,377.4375 428.25,377.5781 Q427.6094,377.7344 426.9063,377.7344 Q424.4063,377.7344 423.0781,376.0938 Q421.7656,374.4375 421.7656,371.3125 Q421.7656,368.1875 423.0781,366.5313 Q424.4063,364.875 426.9063,364.875 Q427.6094,364.875 428.25,365.0313 Q428.9063,365.1875 429.4688,365.4844 L429.4688,368.2031 Q428.8438,367.625 428.25,367.3594 Q427.6563,367.0781 427.0313,367.0781 Q425.6875,367.0781 425,368.1563 Q424.3125,369.2188 424.3125,371.3125 Q424.3125,373.4063 425,374.4844 Q425.6875,375.5469 427.0313,375.5469 Q427.6563,375.5469 428.25,375.2813 Q428.8438,375 429.4688,374.4219 L429.4688,377.1406 Z "/><text fill="#000000" font-family="sans-serif" font-size="12" lengthAdjust="spacingAndGlyphs" textLength="155" x="440.5" y="375.6543">NYPizzaIngredientFactory</text><line style="stroke: #A80036; stroke-width: 1.5;" x1="412.5" x2="597.5" y1="387.5" y2="387.5"/><line style="stroke: #A80036; stroke-width: 1.5;" x1="412.5" x2="597.5" y1="395.5" y2="395.5"/><!--class CheesePizza--><rect fill="#FEFECE" filter="url(#ftf6fimw2aelm)" height="48" id="CheesePizza" style="stroke: #A80036; stroke-width: 1.5;" width="108" x="464" y="43.5"/><ellipse cx="479" cy="59.5" fill="#ADD1B2" rx="11" ry="11" style="stroke: #A80036; stroke-width: 1.0;"/><path d="M481.9688,65.1406 Q481.3906,65.4375 480.75,65.5781 Q480.1094,65.7344 479.4063,65.7344 Q476.9063,65.7344 475.5781,64.0938 Q474.2656,62.4375 474.2656,59.3125 Q474.2656,56.1875 475.5781,54.5313 Q476.9063,52.875 479.4063,52.875 Q480.1094,52.875 480.75,53.0313 Q481.4063,53.1875 481.9688,53.4844 L481.9688,56.2031 Q481.3438,55.625 480.75,55.3594 Q480.1563,55.0781 479.5313,55.0781 Q478.1875,55.0781 477.5,56.1563 Q476.8125,57.2188 476.8125,59.3125 Q476.8125,61.4063 477.5,62.4844 Q478.1875,63.5469 479.5313,63.5469 Q480.1563,63.5469 480.75,63.2813 Q481.3438,63 481.9688,62.4219 L481.9688,65.1406 Z "/><text fill="#000000" font-family="sans-serif" font-size="12" lengthAdjust="spacingAndGlyphs" textLength="76" x="493" y="63.6543">CheesePizza</text><line style="stroke: #A80036; stroke-width: 1.5;" x1="465" x2="571" y1="75.5" y2="75.5"/><line style="stroke: #A80036; stroke-width: 1.5;" x1="465" x2="571" y1="83.5" y2="83.5"/><!--class PeperoniPizza--><rect fill="#FEFECE" filter="url(#ftf6fimw2aelm)" height="48" id="PeperoniPizza" style="stroke: #A80036; stroke-width: 1.5;" width="117" x="311.5" y="43.5"/><ellipse cx="326.5" cy="59.5" fill="#ADD1B2" rx="11" ry="11" style="stroke: #A80036; stroke-width: 1.0;"/><path d="M329.4688,65.1406 Q328.8906,65.4375 328.25,65.5781 Q327.6094,65.7344 326.9063,65.7344 Q324.4063,65.7344 323.0781,64.0938 Q321.7656,62.4375 321.7656,59.3125 Q321.7656,56.1875 323.0781,54.5313 Q324.4063,52.875 326.9063,52.875 Q327.6094,52.875 328.25,53.0313 Q328.9063,53.1875 329.4688,53.4844 L329.4688,56.2031 Q328.8438,55.625 328.25,55.3594 Q327.6563,55.0781 327.0313,55.0781 Q325.6875,55.0781 325,56.1563 Q324.3125,57.2188 324.3125,59.3125 Q324.3125,61.4063 325,62.4844 Q325.6875,63.5469 327.0313,63.5469 Q327.6563,63.5469 328.25,63.2813 Q328.8438,63 329.4688,62.4219 L329.4688,65.1406 Z "/><text fill="#000000" font-family="sans-serif" font-size="12" lengthAdjust="spacingAndGlyphs" textLength="85" x="340.5" y="63.6543">PeperoniPizza</text><line style="stroke: #A80036; stroke-width: 1.5;" x1="312.5" x2="427.5" y1="75.5" y2="75.5"/><line style="stroke: #A80036; stroke-width: 1.5;" x1="312.5" x2="427.5" y1="83.5" y2="83.5"/><!--class GreekPizza--><rect fill="#FEFECE" filter="url(#ftf6fimw2aelm)" height="48" id="GreekPizza" style="stroke: #A80036; stroke-width: 1.5;" width="98" x="607" y="43.5"/><ellipse cx="622" cy="59.5" fill="#ADD1B2" rx="11" ry="11" style="stroke: #A80036; stroke-width: 1.0;"/><path d="M624.9688,65.1406 Q624.3906,65.4375 623.75,65.5781 Q623.1094,65.7344 622.4063,65.7344 Q619.9063,65.7344 618.5781,64.0938 Q617.2656,62.4375 617.2656,59.3125 Q617.2656,56.1875 618.5781,54.5313 Q619.9063,52.875 622.4063,52.875 Q623.1094,52.875 623.75,53.0313 Q624.4063,53.1875 624.9688,53.4844 L624.9688,56.2031 Q624.3438,55.625 623.75,55.3594 Q623.1563,55.0781 622.5313,55.0781 Q621.1875,55.0781 620.5,56.1563 Q619.8125,57.2188 619.8125,59.3125 Q619.8125,61.4063 620.5,62.4844 Q621.1875,63.5469 622.5313,63.5469 Q623.1563,63.5469 623.75,63.2813 Q624.3438,63 624.9688,62.4219 L624.9688,65.1406 Z "/><text fill="#000000" font-family="sans-serif" font-size="12" lengthAdjust="spacingAndGlyphs" textLength="66" x="636" y="63.6543">GreekPizza</text><line style="stroke: #A80036; stroke-width: 1.5;" x1="608" x2="704" y1="75.5" y2="75.5"/><line style="stroke: #A80036; stroke-width: 1.5;" x1="608" x2="704" y1="83.5" y2="83.5"/><!--class PizzaStore--><rect fill="#FEFECE" filter="url(#ftf6fimw2aelm)" height="73.6094" id="PizzaStore" style="stroke: #A80036; stroke-width: 1.5;" width="122" x="20" y="196"/><ellipse cx="46.7" cy="212" fill="#A9DCDF" rx="11" ry="11" style="stroke: #A80036; stroke-width: 1.0;"/><path d="M46.8094,207.3438 L45.6531,212.4219 L47.9813,212.4219 L46.8094,207.3438 Z M45.325,205.1094 L48.3094,205.1094 L51.6688,217.5 L49.2156,217.5 L48.45,214.4375 L45.1688,214.4375 L44.4188,217.5 L41.9813,217.5 L45.325,205.1094 Z "/><text fill="#000000" font-family="sans-serif" font-size="12" font-style="italic" lengthAdjust="spacingAndGlyphs" textLength="64" x="63.3" y="216.1543">PizzaStore</text><line style="stroke: #A80036; stroke-width: 1.5;" x1="21" x2="141" y1="228" y2="228"/><line style="stroke: #A80036; stroke-width: 1.5;" x1="21" x2="141" y1="236" y2="236"/><text fill="#000000" font-family="sans-serif" font-size="11" lengthAdjust="spacingAndGlyphs" textLength="101" x="26" y="250.2104">orderPizza(): Pizza</text><text fill="#000000" font-family="sans-serif" font-size="11" font-style="italic" lengthAdjust="spacingAndGlyphs" textLength="110" x="26" y="263.0151">createPizza(): Pizza</text><!--class Pizza--><rect fill="#FEFECE" filter="url(#ftf6fimw2aelm)" height="99.2188" id="Pizza" style="stroke: #A80036; stroke-width: 1.5;" width="65" x="48.5" y="18"/><ellipse cx="64.85" cy="34" fill="#A9DCDF" rx="11" ry="11" style="stroke: #A80036; stroke-width: 1.0;"/><path d="M64.9594,29.3438 L63.8031,34.4219 L66.1313,34.4219 L64.9594,29.3438 Z M63.475,27.1094 L66.4594,27.1094 L69.8188,39.5 L67.3656,39.5 L66.6,36.4375 L63.3187,36.4375 L62.5687,39.5 L60.1312,39.5 L63.475,27.1094 Z "/><text fill="#000000" font-family="sans-serif" font-size="12" font-style="italic" lengthAdjust="spacingAndGlyphs" textLength="30" x="79.15" y="38.1543">Pizza</text><line style="stroke: #A80036; stroke-width: 1.5;" x1="49.5" x2="112.5" y1="50" y2="50"/><line style="stroke: #A80036; stroke-width: 1.5;" x1="49.5" x2="112.5" y1="58" y2="58"/><text fill="#000000" font-family="sans-serif" font-size="11" lengthAdjust="spacingAndGlyphs" textLength="53" x="54.5" y="72.2104">prepare()</text><text fill="#000000" font-family="sans-serif" font-size="11" lengthAdjust="spacingAndGlyphs" textLength="35" x="54.5" y="85.0151">bake()</text><text fill="#000000" font-family="sans-serif" font-size="11" lengthAdjust="spacingAndGlyphs" textLength="25" x="54.5" y="97.8198">cut()</text><text fill="#000000" font-family="sans-serif" font-size="11" lengthAdjust="spacingAndGlyphs" textLength="28" x="54.5" y="110.6245">box()</text><!--class PizzaIngredientFactory--><rect fill="#FEFECE" filter="url(#ftf6fimw2aelm)" height="112.0234" id="PizzaIngredientFactory" style="stroke: #A80036; stroke-width: 1.5;" width="174" x="431" y="177"/><ellipse cx="446" cy="193" fill="#B4A7E5" rx="11" ry="11" style="stroke: #A80036; stroke-width: 1.0;"/><path d="M441.9219,188.7656 L441.9219,186.6094 L449.3125,186.6094 L449.3125,188.7656 L446.8438,188.7656 L446.8438,196.8438 L449.3125,196.8438 L449.3125,199 L441.9219,199 L441.9219,196.8438 L444.3906,196.8438 L444.3906,188.7656 L441.9219,188.7656 Z "/><text fill="#000000" font-family="sans-serif" font-size="12" font-style="italic" lengthAdjust="spacingAndGlyphs" textLength="142" x="460" y="197.1543">PizzaIngredientFactory</text><line style="stroke: #A80036; stroke-width: 1.5;" x1="432" x2="604" y1="209" y2="209"/><line style="stroke: #A80036; stroke-width: 1.5;" x1="432" x2="604" y1="217" y2="217"/><text fill="#000000" font-family="sans-serif" font-size="11" font-style="italic" lengthAdjust="spacingAndGlyphs" textLength="80" x="437" y="231.2104">createDough()</text><text fill="#000000" font-family="sans-serif" font-size="11" font-style="italic" lengthAdjust="spacingAndGlyphs" textLength="78" x="437" y="244.0151">createSauce()</text><text fill="#000000" font-family="sans-serif" font-size="11" font-style="italic" lengthAdjust="spacingAndGlyphs" textLength="86" x="437" y="256.8198">createCheese()</text><text fill="#000000" font-family="sans-serif" font-size="11" font-style="italic" lengthAdjust="spacingAndGlyphs" textLength="94" x="437" y="269.6245">createPeperoni()</text><text fill="#000000" font-family="sans-serif" font-size="11" font-style="italic" lengthAdjust="spacingAndGlyphs" textLength="89" x="437" y="282.4292">createVeggies()</text><!--class Dough--><rect fill="#FEFECE" filter="url(#ftf6fimw2aelm)" height="48" id="Dough" style="stroke: #A80036; stroke-width: 1.5;" width="73" x="640.5" y="209"/><ellipse cx="655.5" cy="225" fill="#B4A7E5" rx="11" ry="11" style="stroke: #A80036; stroke-width: 1.0;"/><path d="M651.4219,220.7656 L651.4219,218.6094 L658.8125,218.6094 L658.8125,220.7656 L656.3438,220.7656 L656.3438,228.8438 L658.8125,228.8438 L658.8125,231 L651.4219,231 L651.4219,228.8438 L653.8906,228.8438 L653.8906,220.7656 L651.4219,220.7656 Z "/><text fill="#000000" font-family="sans-serif" font-size="12" font-style="italic" lengthAdjust="spacingAndGlyphs" textLength="41" x="669.5" y="229.1543">Dough</text><line style="stroke: #A80036; stroke-width: 1.5;" x1="641.5" x2="712.5" y1="241" y2="241"/><line style="stroke: #A80036; stroke-width: 1.5;" x1="641.5" x2="712.5" y1="249" y2="249"/><!--class NYDough--><rect fill="#FEFECE" filter="url(#ftf6fimw2aelm)" height="48" id="NYDough" style="stroke: #A80036; stroke-width: 1.5;" width="89" x="633.5" y="355.5"/><ellipse cx="648.5" cy="371.5" fill="#ADD1B2" rx="11" ry="11" style="stroke: #A80036; stroke-width: 1.0;"/><path d="M651.4688,377.1406 Q650.8906,377.4375 650.25,377.5781 Q649.6094,377.7344 648.9063,377.7344 Q646.4063,377.7344 645.0781,376.0938 Q643.7656,374.4375 643.7656,371.3125 Q643.7656,368.1875 645.0781,366.5313 Q646.4063,364.875 648.9063,364.875 Q649.6094,364.875 650.25,365.0313 Q650.9063,365.1875 651.4688,365.4844 L651.4688,368.2031 Q650.8438,367.625 650.25,367.3594 Q649.6563,367.0781 649.0313,367.0781 Q647.6875,367.0781 647,368.1563 Q646.3125,369.2188 646.3125,371.3125 Q646.3125,373.4063 647,374.4844 Q647.6875,375.5469 649.0313,375.5469 Q649.6563,375.5469 650.25,375.2813 Q650.8438,375 651.4688,374.4219 L651.4688,377.1406 Z "/><text fill="#000000" font-family="sans-serif" font-size="12" lengthAdjust="spacingAndGlyphs" textLength="57" x="662.5" y="375.6543">NYDough</text><line style="stroke: #A80036; stroke-width: 1.5;" x1="634.5" x2="721.5" y1="387.5" y2="387.5"/><line style="stroke: #A80036; stroke-width: 1.5;" x1="634.5" x2="721.5" y1="395.5" y2="395.5"/><!--reverse link Pizza to PizzaStore--><path d="M81,122.2436 C81,146.3601 81,174.0747 81,195.7474 " fill="none" id="Pizza&lt;-PizzaStore" style="stroke: #A80036; stroke-width: 1.0;"/><polygon fill="#A80036" points="81,117.1555,77,126.1555,81,122.1555,85,126.1555,81,117.1555" style="stroke: #A80036; stroke-width: 1.0;"/><!--reverse link PizzaStore to NYPizzaStore--><path d="M81,290.541 C81,310.3587 81,331.7863 81,348.6451 " fill="none" id="PizzaStore&lt;-NYPizzaStore" style="stroke: #A80036; stroke-width: 1.0;"/><polygon fill="none" points="74.0001,290.3472,81,270.3472,88.0001,290.3472,74.0001,290.3472" style="stroke: #A80036; stroke-width: 1.0;"/><!--reverse link NYPizzaStore to SimpleNewYorkPizzaFactory--><path d="M153.278,379.5 C160.6362,379.5 167.9945,379.5 175.3527,379.5 " fill="none" id="NYPizzaStore&lt;-SimpleNewYorkPizzaFactory" style="stroke: #A80036; stroke-width: 1.0;"/><polygon fill="#A80036" points="140.0332,379.5,146.0332,383.5,152.0332,379.5,146.0332,375.5,140.0332,379.5" style="stroke: #A80036; stroke-width: 1.0;"/><!--reverse link PizzaIngredientFactory to NYPizzaIngredientFactory--><path d="M511.2403,309.1761 C509.7514,325.9556 508.2806,342.5301 507.1412,355.3701 " fill="none" id="PizzaIngredientFactory&lt;-NYPizzaIngredientFactory" style="stroke: #A80036; stroke-width: 1.0; stroke-dasharray: 7.0,7.0;"/><polygon fill="none" points="504.2705,308.5247,513.011,289.2217,518.2158,309.7622,504.2705,308.5247" style="stroke: #A80036; stroke-width: 1.0;"/><!--reverse link SimpleNewYorkPizzaFactory to NYPizzaIngredientFactory--><path d="M389.7032,379.5 C396.9634,379.5 404.2237,379.5 411.4839,379.5 " fill="none" id="SimpleNewYorkPizzaFactory&lt;-NYPizzaIngredientFactory" style="stroke: #A80036; stroke-width: 1.0;"/><polygon fill="#A80036" points="376.6348,379.5,382.6348,383.5,388.6348,379.5,382.6348,375.5,376.6348,379.5" style="stroke: #A80036; stroke-width: 1.0;"/><!--link SimpleNewYorkPizzaFactory to pizza--><path d="M276,355.3281 C276,319.7345 276,250.7813 276,189.2879 C276,158.5412 276,129.6594 276,107.745 C276,105.0057 276,102.3752 276,99.8636 " fill="none" id="SimpleNewYorkPizzaFactory-&gt;pizza" style="stroke: #A80036; stroke-width: 1.0;"/><polygon fill="#A80036" points="276,99.8636,272,108.8636,276,104.8636,280,108.8636,276,99.8636" style="stroke: #A80036; stroke-width: 1.0;"/><!--link CheesePizza to PizzaIngredientFactory--><path d="M518,91.5651 C518,112.4957 518,143.7464 518,171.5534 " fill="none" id="CheesePizza-&gt;PizzaIngredientFactory" style="stroke: #A80036; stroke-width: 1.0;"/><polygon fill="#A80036" points="518,176.7022,522,167.7022,518,171.7022,514,167.7022,518,176.7022" style="stroke: #A80036; stroke-width: 1.0;"/><!--link PeperoniPizza to PizzaIngredientFactory--><path d="M391.5205,91.5651 C410.5485,112.8431 439.1143,144.7867 464.2863,172.9351 " fill="none" id="PeperoniPizza-&gt;PizzaIngredientFactory" style="stroke: #A80036; stroke-width: 1.0;"/><polygon fill="#A80036" points="467.6552,176.7022,464.6373,167.3271,464.3222,172.9752,458.6741,172.66,467.6552,176.7022" style="stroke: #A80036; stroke-width: 1.0;"/><!--link GreekPizza to PizzaIngredientFactory--><path d="M635.9336,91.5651 C618.2637,112.7562 591.7728,144.5261 568.3719,172.5902 " fill="none" id="GreekPizza-&gt;PizzaIngredientFactory" style="stroke: #A80036; stroke-width: 1.0;"/><polygon fill="#A80036" points="564.9432,176.7022,573.7791,172.3517,568.1453,172.8621,567.6349,167.2283,564.9432,176.7022" style="stroke: #A80036; stroke-width: 1.0;"/><!--reverse link Dough to NYDough--><path d="M677.3033,277.4298 C677.4779,303.0067 677.6905,334.1609 677.8346,355.2726 " fill="none" id="Dough&lt;-NYDough" style="stroke: #A80036; stroke-width: 1.0; stroke-dasharray: 7.0,7.0;"/><polygon fill="none" points="670.3019,277.2388,677.1651,257.1915,684.3016,277.1432,670.3019,277.2388" style="stroke: #A80036; stroke-width: 1.0;"/><!--link PizzaIngredientFactory to Dough--><path d="M605.2637,233 C615.2064,233 625.1491,233 635.0918,233 " fill="none" id="PizzaIngredientFactory-&gt;Dough" style="stroke: #A80036; stroke-width: 1.0;"/><polygon fill="#A80036" points="640.2912,233,631.2912,229,635.2912,233,631.2912,237,640.2912,233" style="stroke: #A80036; stroke-width: 1.0;"/><!--link NYPizzaIngredientFactory to NYDough--><path d="M598.5957,379.5 C608.4566,379.5 618.3175,379.5 628.1785,379.5 " fill="none" id="NYPizzaIngredientFactory-&gt;NYDough" style="stroke: #A80036; stroke-width: 1.0;"/><polygon fill="#A80036" points="633.3351,379.5,624.3351,375.5,628.3351,379.5,624.3351,383.5,633.3351,379.5" style="stroke: #A80036; stroke-width: 1.0;"/><!--
@startuml

abstract class PizzaStore{
    orderPizza(): Pizza
    {abstract}  createPizza(): Pizza
}
PizzaStore -up-> Pizza

Interface PizzaIngredientFactory{
    {abstract} createDough()
    {abstract} createSauce()
    {abstract} createCheese()
    {abstract} createPeperoni()
    {abstract} createVeggies()
}

package new_york{
    class NYPizzaStore extends PizzaStore{
    createPizza(): Pizza
    }
    NYPizzaStore *- SimpleNewYorkPizzaFactory
    class NYPizzaIngredientFactory implements PizzaIngredientFactory
    SimpleNewYorkPizzaFactory *- NYPizzaIngredientFactory

    
    SimpleNewYorkPizzaFactory -down-> pizza
}



package pizza{
    abstract class Pizza{
        prepare()
        bake()
        cut()
        box()
    }
    class CheesePizza
    class PeperoniPizza
    class GreekPizza
}
CheesePizza -down->PizzaIngredientFactory
PeperoniPizza -down->PizzaIngredientFactory
GreekPizza -down->PizzaIngredientFactory

Interface Dough
Class NYDough implements Dough

PizzaIngredientFactory -right->Dough
NYPizzaIngredientFactory -> NYDough

@enduml

PlantUML version 1.2019.09(Mon Aug 26 18:19:51 CEST 2019)
(GPL source distribution)
Java Runtime: OpenJDK Runtime Environment
JVM: OpenJDK 64-Bit Server VM
Java Version: 11.0.6+10-post-Ubuntu-1ubuntu119.10.1
Operating System: Linux
OS Version: 5.3.0-29-generic
Default Encoding: UTF-8
Language: en
Country: US
--></g></svg>