<?xml version="1.0" encoding="UTF-8" standalone="no"?><svg xmlns="http://www.w3.org/2000/svg" xmlns:xlink="http://www.w3.org/1999/xlink" contentScriptType="application/ecmascript" contentStyleType="text/css" height="490px" preserveAspectRatio="none" style="width:1072px;height:490px;" version="1.1" viewBox="0 0 1072 490" width="1072px" zoomAndPan="magnify"><defs><filter height="300%" id="f3ohep48f485m" width="300%" x="-1" y="-1"><feGaussianBlur result="blurOut" stdDeviation="2.0"/><feColorMatrix in="blurOut" result="blurOut2" type="matrix" values="0 0 0 0 0 0 0 0 0 0 0 0 0 0 0 0 0 0 .4 0"/><feOffset dx="4.0" dy="4.0" in="blurOut2" result="blurOut3"/><feBlend in="SourceGraphic" in2="blurOut3" mode="normal"/></filter></defs><g><!--cluster new_york--><polygon fill="#FFFFFF" filter="url(#f3ohep48f485m)" points="14,274,96,274,103,296.2969,472,296.2969,472,478,14,478,14,274" style="stroke: #000000; stroke-width: 1.5;"/><line style="stroke: #000000; stroke-width: 1.5;" x1="14" x2="103" y1="296.2969" y2="296.2969"/><text fill="#000000" font-family="sans-serif" font-size="14" font-weight="bold" lengthAdjust="spacingAndGlyphs" textLength="76" x="18" y="288.9951">new_york</text><!--cluster chicago--><polygon fill="#FFFFFF" filter="url(#f3ohep48f485m)" points="491,274,558,274,565,296.2969,1050,296.2969,1050,478,491,478,491,274" style="stroke: #000000; stroke-width: 1.5;"/><line style="stroke: #000000; stroke-width: 1.5;" x1="491" x2="565" y1="296.2969" y2="296.2969"/><text fill="#000000" font-family="sans-serif" font-size="14" font-weight="bold" lengthAdjust="spacingAndGlyphs" textLength="61" x="495" y="288.9951">chicago</text><!--class NYPizzaStore--><rect fill="#FEFECE" filter="url(#f3ohep48f485m)" height="60.8047" id="NYPizzaStore" style="stroke: #A80036; stroke-width: 1.5;" width="118" x="109" y="301"/><ellipse cx="127.15" cy="317" fill="#ADD1B2" rx="11" ry="11" style="stroke: #A80036; stroke-width: 1.0;"/><path d="M130.1188,322.6406 Q129.5406,322.9375 128.9,323.0781 Q128.2594,323.2344 127.5563,323.2344 Q125.0563,323.2344 123.7281,321.5938 Q122.4156,319.9375 122.4156,316.8125 Q122.4156,313.6875 123.7281,312.0313 Q125.0563,310.375 127.5563,310.375 Q128.2594,310.375 128.9,310.5313 Q129.5563,310.6875 130.1188,310.9844 L130.1188,313.7031 Q129.4938,313.125 128.9,312.8594 Q128.3063,312.5781 127.6813,312.5781 Q126.3375,312.5781 125.65,313.6563 Q124.9625,314.7188 124.9625,316.8125 Q124.9625,318.9063 125.65,319.9844 Q126.3375,321.0469 127.6813,321.0469 Q128.3063,321.0469 128.9,320.7813 Q129.4938,320.5 130.1188,319.9219 L130.1188,322.6406 Z "/><text fill="#000000" font-family="sans-serif" font-size="12" lengthAdjust="spacingAndGlyphs" textLength="79" x="141.85" y="321.1543">NYPizzaStore</text><line style="stroke: #A80036; stroke-width: 1.5;" x1="110" x2="226" y1="333" y2="333"/><line style="stroke: #A80036; stroke-width: 1.5;" x1="110" x2="226" y1="341" y2="341"/><text fill="#000000" font-family="sans-serif" font-size="11" lengthAdjust="spacingAndGlyphs" textLength="106" x="115" y="355.2104">createPizza(): Pizza</text><!--class SimpleNewYorkPizzaFactory--><rect fill="#FEFECE" filter="url(#f3ohep48f485m)" height="48" id="SimpleNewYorkPizzaFactory" style="stroke: #A80036; stroke-width: 1.5;" width="201" x="262.5" y="307.5"/><ellipse cx="277.5" cy="323.5" fill="#ADD1B2" rx="11" ry="11" style="stroke: #A80036; stroke-width: 1.0;"/><path d="M280.4688,329.1406 Q279.8906,329.4375 279.25,329.5781 Q278.6094,329.7344 277.9063,329.7344 Q275.4063,329.7344 274.0781,328.0938 Q272.7656,326.4375 272.7656,323.3125 Q272.7656,320.1875 274.0781,318.5313 Q275.4063,316.875 277.9063,316.875 Q278.6094,316.875 279.25,317.0313 Q279.9063,317.1875 280.4688,317.4844 L280.4688,320.2031 Q279.8438,319.625 279.25,319.3594 Q278.6563,319.0781 278.0313,319.0781 Q276.6875,319.0781 276,320.1563 Q275.3125,321.2188 275.3125,323.3125 Q275.3125,325.4063 276,326.4844 Q276.6875,327.5469 278.0313,327.5469 Q278.6563,327.5469 279.25,327.2813 Q279.8438,327 280.4688,326.4219 L280.4688,329.1406 Z "/><text fill="#000000" font-family="sans-serif" font-size="12" lengthAdjust="spacingAndGlyphs" textLength="169" x="291.5" y="327.6543">SimpleNewYorkPizzaFactory</text><line style="stroke: #A80036; stroke-width: 1.5;" x1="263.5" x2="462.5" y1="339.5" y2="339.5"/><line style="stroke: #A80036; stroke-width: 1.5;" x1="263.5" x2="462.5" y1="347.5" y2="347.5"/><!--class NYCheesePizza--><rect fill="#FEFECE" filter="url(#f3ohep48f485m)" height="48" id="NYCheesePizza" style="stroke: #A80036; stroke-width: 1.5;" width="124" x="22" y="422"/><ellipse cx="37" cy="438" fill="#ADD1B2" rx="11" ry="11" style="stroke: #A80036; stroke-width: 1.0;"/><path d="M39.9688,443.6406 Q39.3906,443.9375 38.75,444.0781 Q38.1094,444.2344 37.4063,444.2344 Q34.9063,444.2344 33.5781,442.5938 Q32.2656,440.9375 32.2656,437.8125 Q32.2656,434.6875 33.5781,433.0313 Q34.9063,431.375 37.4063,431.375 Q38.1094,431.375 38.75,431.5313 Q39.4063,431.6875 39.9688,431.9844 L39.9688,434.7031 Q39.3438,434.125 38.75,433.8594 Q38.1563,433.5781 37.5313,433.5781 Q36.1875,433.5781 35.5,434.6563 Q34.8125,435.7188 34.8125,437.8125 Q34.8125,439.9063 35.5,440.9844 Q36.1875,442.0469 37.5313,442.0469 Q38.1563,442.0469 38.75,441.7813 Q39.3438,441.5 39.9688,440.9219 L39.9688,443.6406 Z "/><text fill="#000000" font-family="sans-serif" font-size="12" lengthAdjust="spacingAndGlyphs" textLength="92" x="51" y="442.1543">NYCheesePizza</text><line style="stroke: #A80036; stroke-width: 1.5;" x1="23" x2="145" y1="454" y2="454"/><line style="stroke: #A80036; stroke-width: 1.5;" x1="23" x2="145" y1="462" y2="462"/><!--class NYPeperoniPizza--><rect fill="#FEFECE" filter="url(#f3ohep48f485m)" height="48" id="NYPeperoniPizza" style="stroke: #A80036; stroke-width: 1.5;" width="133" x="181.5" y="422"/><ellipse cx="196.5" cy="438" fill="#ADD1B2" rx="11" ry="11" style="stroke: #A80036; stroke-width: 1.0;"/><path d="M199.4688,443.6406 Q198.8906,443.9375 198.25,444.0781 Q197.6094,444.2344 196.9063,444.2344 Q194.4063,444.2344 193.0781,442.5938 Q191.7656,440.9375 191.7656,437.8125 Q191.7656,434.6875 193.0781,433.0313 Q194.4063,431.375 196.9063,431.375 Q197.6094,431.375 198.25,431.5313 Q198.9063,431.6875 199.4688,431.9844 L199.4688,434.7031 Q198.8438,434.125 198.25,433.8594 Q197.6563,433.5781 197.0313,433.5781 Q195.6875,433.5781 195,434.6563 Q194.3125,435.7188 194.3125,437.8125 Q194.3125,439.9063 195,440.9844 Q195.6875,442.0469 197.0313,442.0469 Q197.6563,442.0469 198.25,441.7813 Q198.8438,441.5 199.4688,440.9219 L199.4688,443.6406 Z "/><text fill="#000000" font-family="sans-serif" font-size="12" lengthAdjust="spacingAndGlyphs" textLength="101" x="210.5" y="442.1543">NYPeperoniPizza</text><line style="stroke: #A80036; stroke-width: 1.5;" x1="182.5" x2="313.5" y1="454" y2="454"/><line style="stroke: #A80036; stroke-width: 1.5;" x1="182.5" x2="313.5" y1="462" y2="462"/><!--class NYGreekPizza--><rect fill="#FEFECE" filter="url(#f3ohep48f485m)" height="48" id="NYGreekPizza" style="stroke: #A80036; stroke-width: 1.5;" width="114" x="350" y="422"/><ellipse cx="365" cy="438" fill="#ADD1B2" rx="11" ry="11" style="stroke: #A80036; stroke-width: 1.0;"/><path d="M367.9688,443.6406 Q367.3906,443.9375 366.75,444.0781 Q366.1094,444.2344 365.4063,444.2344 Q362.9063,444.2344 361.5781,442.5938 Q360.2656,440.9375 360.2656,437.8125 Q360.2656,434.6875 361.5781,433.0313 Q362.9063,431.375 365.4063,431.375 Q366.1094,431.375 366.75,431.5313 Q367.4063,431.6875 367.9688,431.9844 L367.9688,434.7031 Q367.3438,434.125 366.75,433.8594 Q366.1563,433.5781 365.5313,433.5781 Q364.1875,433.5781 363.5,434.6563 Q362.8125,435.7188 362.8125,437.8125 Q362.8125,439.9063 363.5,440.9844 Q364.1875,442.0469 365.5313,442.0469 Q366.1563,442.0469 366.75,441.7813 Q367.3438,441.5 367.9688,440.9219 L367.9688,443.6406 Z "/><text fill="#000000" font-family="sans-serif" font-size="12" lengthAdjust="spacingAndGlyphs" textLength="82" x="379" y="442.1543">NYGreekPizza</text><line style="stroke: #A80036; stroke-width: 1.5;" x1="351" x2="463" y1="454" y2="454"/><line style="stroke: #A80036; stroke-width: 1.5;" x1="351" x2="463" y1="462" y2="462"/><!--class ChicagoPizzaStore--><rect fill="#FEFECE" filter="url(#f3ohep48f485m)" height="60.8047" id="ChicagoPizzaStore" style="stroke: #A80036; stroke-width: 1.5;" width="145" x="732.5" y="301"/><ellipse cx="747.5" cy="317" fill="#ADD1B2" rx="11" ry="11" style="stroke: #A80036; stroke-width: 1.0;"/><path d="M750.4688,322.6406 Q749.8906,322.9375 749.25,323.0781 Q748.6094,323.2344 747.9063,323.2344 Q745.4063,323.2344 744.0781,321.5938 Q742.7656,319.9375 742.7656,316.8125 Q742.7656,313.6875 744.0781,312.0313 Q745.4063,310.375 747.9063,310.375 Q748.6094,310.375 749.25,310.5313 Q749.9063,310.6875 750.4688,310.9844 L750.4688,313.7031 Q749.8438,313.125 749.25,312.8594 Q748.6563,312.5781 748.0313,312.5781 Q746.6875,312.5781 746,313.6563 Q745.3125,314.7188 745.3125,316.8125 Q745.3125,318.9063 746,319.9844 Q746.6875,321.0469 748.0313,321.0469 Q748.6563,321.0469 749.25,320.7813 Q749.8438,320.5 750.4688,319.9219 L750.4688,322.6406 Z "/><text fill="#000000" font-family="sans-serif" font-size="12" lengthAdjust="spacingAndGlyphs" textLength="113" x="761.5" y="321.1543">ChicagoPizzaStore</text><line style="stroke: #A80036; stroke-width: 1.5;" x1="733.5" x2="876.5" y1="333" y2="333"/><line style="stroke: #A80036; stroke-width: 1.5;" x1="733.5" x2="876.5" y1="341" y2="341"/><text fill="#000000" font-family="sans-serif" font-size="11" lengthAdjust="spacingAndGlyphs" textLength="106" x="738.5" y="355.2104">createPizza(): Pizza</text><!--class SimpleChicagoPizzaFactory--><rect fill="#FEFECE" filter="url(#f3ohep48f485m)" height="48" id="SimpleChicagoPizzaFactory" style="stroke: #A80036; stroke-width: 1.5;" width="198" x="499" y="307.5"/><ellipse cx="514" cy="323.5" fill="#ADD1B2" rx="11" ry="11" style="stroke: #A80036; stroke-width: 1.0;"/><path d="M516.9688,329.1406 Q516.3906,329.4375 515.75,329.5781 Q515.1094,329.7344 514.4063,329.7344 Q511.9063,329.7344 510.5781,328.0938 Q509.2656,326.4375 509.2656,323.3125 Q509.2656,320.1875 510.5781,318.5313 Q511.9063,316.875 514.4063,316.875 Q515.1094,316.875 515.75,317.0313 Q516.4063,317.1875 516.9688,317.4844 L516.9688,320.2031 Q516.3438,319.625 515.75,319.3594 Q515.1563,319.0781 514.5313,319.0781 Q513.1875,319.0781 512.5,320.1563 Q511.8125,321.2188 511.8125,323.3125 Q511.8125,325.4063 512.5,326.4844 Q513.1875,327.5469 514.5313,327.5469 Q515.1563,327.5469 515.75,327.2813 Q516.3438,327 516.9688,326.4219 L516.9688,329.1406 Z "/><text fill="#000000" font-family="sans-serif" font-size="12" lengthAdjust="spacingAndGlyphs" textLength="166" x="528" y="327.6543">SimpleChicagoPizzaFactory</text><line style="stroke: #A80036; stroke-width: 1.5;" x1="500" x2="696" y1="339.5" y2="339.5"/><line style="stroke: #A80036; stroke-width: 1.5;" x1="500" x2="696" y1="347.5" y2="347.5"/><!--class ChicagoCheesePizza--><rect fill="#FEFECE" filter="url(#f3ohep48f485m)" height="48" id="ChicagoCheesePizza" style="stroke: #A80036; stroke-width: 1.5;" width="158" x="499" y="422"/><ellipse cx="514" cy="438" fill="#ADD1B2" rx="11" ry="11" style="stroke: #A80036; stroke-width: 1.0;"/><path d="M516.9688,443.6406 Q516.3906,443.9375 515.75,444.0781 Q515.1094,444.2344 514.4063,444.2344 Q511.9063,444.2344 510.5781,442.5938 Q509.2656,440.9375 509.2656,437.8125 Q509.2656,434.6875 510.5781,433.0313 Q511.9063,431.375 514.4063,431.375 Q515.1094,431.375 515.75,431.5313 Q516.4063,431.6875 516.9688,431.9844 L516.9688,434.7031 Q516.3438,434.125 515.75,433.8594 Q515.1563,433.5781 514.5313,433.5781 Q513.1875,433.5781 512.5,434.6563 Q511.8125,435.7188 511.8125,437.8125 Q511.8125,439.9063 512.5,440.9844 Q513.1875,442.0469 514.5313,442.0469 Q515.1563,442.0469 515.75,441.7813 Q516.3438,441.5 516.9688,440.9219 L516.9688,443.6406 Z "/><text fill="#000000" font-family="sans-serif" font-size="12" lengthAdjust="spacingAndGlyphs" textLength="126" x="528" y="442.1543">ChicagoCheesePizza</text><line style="stroke: #A80036; stroke-width: 1.5;" x1="500" x2="656" y1="454" y2="454"/><line style="stroke: #A80036; stroke-width: 1.5;" x1="500" x2="656" y1="462" y2="462"/><!--class ChicagoPeperoniPizza--><rect fill="#FEFECE" filter="url(#f3ohep48f485m)" height="48" id="ChicagoPeperoniPizza" style="stroke: #A80036; stroke-width: 1.5;" width="167" x="691.5" y="422"/><ellipse cx="706.5" cy="438" fill="#ADD1B2" rx="11" ry="11" style="stroke: #A80036; stroke-width: 1.0;"/><path d="M709.4688,443.6406 Q708.8906,443.9375 708.25,444.0781 Q707.6094,444.2344 706.9063,444.2344 Q704.4063,444.2344 703.0781,442.5938 Q701.7656,440.9375 701.7656,437.8125 Q701.7656,434.6875 703.0781,433.0313 Q704.4063,431.375 706.9063,431.375 Q707.6094,431.375 708.25,431.5313 Q708.9063,431.6875 709.4688,431.9844 L709.4688,434.7031 Q708.8438,434.125 708.25,433.8594 Q707.6563,433.5781 707.0313,433.5781 Q705.6875,433.5781 705,434.6563 Q704.3125,435.7188 704.3125,437.8125 Q704.3125,439.9063 705,440.9844 Q705.6875,442.0469 707.0313,442.0469 Q707.6563,442.0469 708.25,441.7813 Q708.8438,441.5 709.4688,440.9219 L709.4688,443.6406 Z "/><text fill="#000000" font-family="sans-serif" font-size="12" lengthAdjust="spacingAndGlyphs" textLength="135" x="720.5" y="442.1543">ChicagoPeperoniPizza</text><line style="stroke: #A80036; stroke-width: 1.5;" x1="692.5" x2="857.5" y1="454" y2="454"/><line style="stroke: #A80036; stroke-width: 1.5;" x1="692.5" x2="857.5" y1="462" y2="462"/><!--class ChicagoGreekPizza--><rect fill="#FEFECE" filter="url(#f3ohep48f485m)" height="48" id="ChicagoGreekPizza" style="stroke: #A80036; stroke-width: 1.5;" width="148" x="894" y="422"/><ellipse cx="909" cy="438" fill="#ADD1B2" rx="11" ry="11" style="stroke: #A80036; stroke-width: 1.0;"/><path d="M911.9688,443.6406 Q911.3906,443.9375 910.75,444.0781 Q910.1094,444.2344 909.4063,444.2344 Q906.9063,444.2344 905.5781,442.5938 Q904.2656,440.9375 904.2656,437.8125 Q904.2656,434.6875 905.5781,433.0313 Q906.9063,431.375 909.4063,431.375 Q910.1094,431.375 910.75,431.5313 Q911.4063,431.6875 911.9688,431.9844 L911.9688,434.7031 Q911.3438,434.125 910.75,433.8594 Q910.1563,433.5781 909.5313,433.5781 Q908.1875,433.5781 907.5,434.6563 Q906.8125,435.7188 906.8125,437.8125 Q906.8125,439.9063 907.5,440.9844 Q908.1875,442.0469 909.5313,442.0469 Q910.1563,442.0469 910.75,441.7813 Q911.3438,441.5 911.9688,440.9219 L911.9688,443.6406 Z "/><text fill="#000000" font-family="sans-serif" font-size="12" lengthAdjust="spacingAndGlyphs" textLength="116" x="923" y="442.1543">ChicagoGreekPizza</text><line style="stroke: #A80036; stroke-width: 1.5;" x1="895" x2="1041" y1="454" y2="454"/><line style="stroke: #A80036; stroke-width: 1.5;" x1="895" x2="1041" y1="462" y2="462"/><!--class PizzaStore--><rect fill="#FEFECE" filter="url(#f3ohep48f485m)" height="73.6094" id="PizzaStore" style="stroke: #A80036; stroke-width: 1.5;" width="122" x="391" y="8"/><ellipse cx="417.7" cy="24" fill="#A9DCDF" rx="11" ry="11" style="stroke: #A80036; stroke-width: 1.0;"/><path d="M417.8094,19.3438 L416.6531,24.4219 L418.9813,24.4219 L417.8094,19.3438 Z M416.325,17.1094 L419.3094,17.1094 L422.6688,29.5 L420.2156,29.5 L419.45,26.4375 L416.1688,26.4375 L415.4188,29.5 L412.9813,29.5 L416.325,17.1094 Z "/><text fill="#000000" font-family="sans-serif" font-size="12" font-style="italic" lengthAdjust="spacingAndGlyphs" textLength="64" x="434.3" y="28.1543">PizzaStore</text><line style="stroke: #A80036; stroke-width: 1.5;" x1="392" x2="512" y1="40" y2="40"/><line style="stroke: #A80036; stroke-width: 1.5;" x1="392" x2="512" y1="48" y2="48"/><text fill="#000000" font-family="sans-serif" font-size="11" lengthAdjust="spacingAndGlyphs" textLength="101" x="397" y="62.2104">orderPizza(): Pizza</text><text fill="#000000" font-family="sans-serif" font-size="11" font-style="italic" lengthAdjust="spacingAndGlyphs" textLength="110" x="397" y="75.0151">createPizza(): Pizza</text><!--class Pizza--><rect fill="#FEFECE" filter="url(#f3ohep48f485m)" height="99.2188" id="Pizza" style="stroke: #A80036; stroke-width: 1.5;" width="65" x="419.5" y="142"/><ellipse cx="435.85" cy="158" fill="#A9DCDF" rx="11" ry="11" style="stroke: #A80036; stroke-width: 1.0;"/><path d="M435.9594,153.3438 L434.8031,158.4219 L437.1313,158.4219 L435.9594,153.3438 Z M434.475,151.1094 L437.4594,151.1094 L440.8188,163.5 L438.3656,163.5 L437.6,160.4375 L434.3188,160.4375 L433.5688,163.5 L431.1313,163.5 L434.475,151.1094 Z "/><text fill="#000000" font-family="sans-serif" font-size="12" font-style="italic" lengthAdjust="spacingAndGlyphs" textLength="30" x="450.15" y="162.1543">Pizza</text><line style="stroke: #A80036; stroke-width: 1.5;" x1="420.5" x2="483.5" y1="174" y2="174"/><line style="stroke: #A80036; stroke-width: 1.5;" x1="420.5" x2="483.5" y1="182" y2="182"/><text fill="#000000" font-family="sans-serif" font-size="11" lengthAdjust="spacingAndGlyphs" textLength="53" x="425.5" y="196.2104">prepare()</text><text fill="#000000" font-family="sans-serif" font-size="11" lengthAdjust="spacingAndGlyphs" textLength="35" x="425.5" y="209.0151">bake()</text><text fill="#000000" font-family="sans-serif" font-size="11" lengthAdjust="spacingAndGlyphs" textLength="25" x="425.5" y="221.8198">cut()</text><text fill="#000000" font-family="sans-serif" font-size="11" lengthAdjust="spacingAndGlyphs" textLength="28" x="425.5" y="234.6245">box()</text><!--link PizzaStore to Pizza--><path d="M452,82.3472 C452,98.8523 452,118.5884 452,136.7116 " fill="none" id="PizzaStore-&gt;Pizza" style="stroke: #A80036; stroke-width: 1.0;"/><polygon fill="#A80036" points="452,141.7764,456,132.7764,452,136.7764,448,132.7764,452,141.7764" style="stroke: #A80036; stroke-width: 1.0;"/><!--reverse link PizzaStore to NYPizzaStore--><path d="M400.9842,96.4649 C341.9426,156.0262 246.649,252.1587 198.27,300.9636 " fill="none" id="PizzaStore&lt;-NYPizzaStore" style="stroke: #A80036; stroke-width: 1.0;"/><polygon fill="none" points="396.1117,91.4371,415.1631,82.1612,406.0545,101.2932,396.1117,91.4371" style="stroke: #A80036; stroke-width: 1.0;"/><!--reverse link NYPizzaStore to SimpleNewYorkPizzaFactory--><path d="M240.278,331.5 C247.6362,331.5 254.9945,331.5 262.3527,331.5 " fill="none" id="NYPizzaStore&lt;-SimpleNewYorkPizzaFactory" style="stroke: #A80036; stroke-width: 1.0;"/><polygon fill="#A80036" points="227.0332,331.5,233.0332,335.5,239.0332,331.5,233.0332,327.5,227.0332,331.5" style="stroke: #A80036; stroke-width: 1.0;"/><!--reverse link Pizza to SimpleNewYorkPizzaFactory--><path d="M417.671,245.5007 C404.0718,266.8927 389.1337,290.3908 378.3139,307.4107 " fill="none" id="Pizza&lt;-SimpleNewYorkPizzaFactory" style="stroke: #A80036; stroke-width: 1.0;"/><polygon fill="#A80036" points="420.3713,241.253,412.1673,246.7023,417.6889,245.4726,418.9186,250.9941,420.3713,241.253" style="stroke: #A80036; stroke-width: 1.0;"/><!--link SimpleNewYorkPizzaFactory to NYCheesePizza--><path d="M304.5125,355.503 C258.631,374.3324 194.857,400.5049 147.6898,419.8621 " fill="none" id="SimpleNewYorkPizzaFactory-&gt;NYCheesePizza" style="stroke: #A80036; stroke-width: 1.0;"/><polygon fill="#A80036" points="142.8903,421.8317,152.7351,422.115,147.5159,419.9333,149.6976,414.7141,142.8903,421.8317" style="stroke: #A80036; stroke-width: 1.0;"/><!--link SimpleNewYorkPizzaFactory to NYGreekPizza--><path d="M372.2238,355.503 C379.1002,373.3971 388.5249,397.9228 395.8285,416.9286 " fill="none" id="SimpleNewYorkPizzaFactory-&gt;NYGreekPizza" style="stroke: #A80036; stroke-width: 1.0;"/><polygon fill="#A80036" points="397.6368,421.6343,398.1422,411.7984,395.8432,416.9671,390.6746,414.6681,397.6368,421.6343" style="stroke: #A80036; stroke-width: 1.0;"/><!--link SimpleNewYorkPizzaFactory to NYPeperoniPizza--><path d="M338.8922,355.503 C320.6153,373.7004 295.4502,398.7561 276.2325,417.8902 " fill="none" id="SimpleNewYorkPizzaFactory-&gt;NYPeperoniPizza" style="stroke: #A80036; stroke-width: 1.0;"/><polygon fill="#A80036" points="272.4721,421.6343,281.6722,418.1188,276.0153,418.1065,276.0277,412.4496,272.4721,421.6343" style="stroke: #A80036; stroke-width: 1.0;"/><!--reverse link PizzaStore to ChicagoPizzaStore--><path d="M513.5545,94.9585 C586.7849,154.3934 706.733,251.7451 767.3757,300.9636 " fill="none" id="PizzaStore&lt;-ChicagoPizzaStore" style="stroke: #A80036; stroke-width: 1.0;"/><polygon fill="none" points="508.9045,100.1999,497.7867,82.1612,517.727,89.3296,508.9045,100.1999" style="stroke: #A80036; stroke-width: 1.0;"/><!--link SimpleChicagoPizzaFactory to ChicagoPizzaStore--><path d="M697.0527,331.5 C704.5242,331.5 711.9956,331.5 719.4671,331.5 " fill="none" id="SimpleChicagoPizzaFactory-&gt;ChicagoPizzaStore" style="stroke: #A80036; stroke-width: 1.0;"/><polygon fill="#A80036" points="732.4729,331.5,726.4729,327.5,720.4729,331.5,726.4729,335.5,732.4729,331.5" style="stroke: #A80036; stroke-width: 1.0;"/><!--reverse link Pizza to SimpleChicagoPizzaFactory--><path d="M488.5671,226.5643 C514.7649,251.6856 549.3813,284.8793 572.6026,307.1464 " fill="none" id="Pizza&lt;-SimpleChicagoPizzaFactory" style="stroke: #A80036; stroke-width: 1.0;"/><polygon fill="#A80036" points="484.7652,222.9187,488.4929,232.0348,488.3742,226.3792,494.0298,226.2605,484.7652,222.9187" style="stroke: #A80036; stroke-width: 1.0;"/><!--link SimpleChicagoPizzaFactory to ChicagoCheesePizza--><path d="M593.8073,355.503 C590.7082,373.2454 586.4703,397.5076 583.1626,416.4443 " fill="none" id="SimpleChicagoPizzaFactory-&gt;ChicagoCheesePizza" style="stroke: #A80036; stroke-width: 1.0;"/><polygon fill="#A80036" points="582.256,421.6343,587.7451,413.4569,583.1164,416.7089,579.8644,412.0802,582.256,421.6343" style="stroke: #A80036; stroke-width: 1.0;"/><!--link SimpleChicagoPizzaFactory to ChicagoGreekPizza--><path d="M675.5641,355.503 C738.1414,374.8681 825.8162,401.9999 888.8203,421.4971 " fill="none" id="SimpleChicagoPizzaFactory-&gt;ChicagoGreekPizza" style="stroke: #A80036; stroke-width: 1.0;"/><polygon fill="#A80036" points="893.6933,423.0051,886.2782,416.5231,888.9168,421.5268,883.913,424.1654,893.6933,423.0051" style="stroke: #A80036; stroke-width: 1.0;"/><!--link SimpleChicagoPizzaFactory to ChicagoPeperoniPizza--><path d="M635.105,355.503 C663.801,374.0662 703.5294,399.7662 733.3189,419.0368 " fill="none" id="SimpleChicagoPizzaFactory-&gt;ChicagoPeperoniPizza" style="stroke: #A80036; stroke-width: 1.0;"/><polygon fill="#A80036" points="737.6395,421.8317,732.2556,413.5847,733.4414,419.1159,727.9102,420.3017,737.6395,421.8317" style="stroke: #A80036; stroke-width: 1.0;"/><!--
@startuml

abstract class PizzaStore{
    orderPizza(): Pizza
    {abstract}  createPizza(): Pizza
}
PizzaStore -down-> Pizza
abstract class Pizza{
    prepare()
    bake()
    cut()
    box()
}

package new_york{
    class NYPizzaStore extends PizzaStore{
    createPizza(): Pizza
    }
    NYPizzaStore *- SimpleNewYorkPizzaFactory

    class NYCheesePizza
    class NYPeperoniPizza
    class NYGreekPizza

    SimpleNewYorkPizzaFactory -up-> Pizza
    SimpleNewYorkPizzaFactory -down-> NYCheesePizza
    SimpleNewYorkPizzaFactory -down-> NYGreekPizza
    SimpleNewYorkPizzaFactory -down-> NYPeperoniPizza
}

package chicago{
    class ChicagoPizzaStore extends PizzaStore{
        createPizza(): Pizza
    }
    SimpleChicagoPizzaFactory -* ChicagoPizzaStore    

    class ChicagoCheesePizza
    class ChicagoPeperoniPizza
    class ChicagoGreekPizza

    SimpleChicagoPizzaFactory -up-> Pizza
    SimpleChicagoPizzaFactory -down-> ChicagoCheesePizza
    SimpleChicagoPizzaFactory -down-> ChicagoGreekPizza
    SimpleChicagoPizzaFactory -down-> ChicagoPeperoniPizza
}




@enduml

PlantUML version 1.2019.09(Mon Aug 26 18:19:51 CEST 2019)
(GPL source distribution)
Java Runtime: OpenJDK Runtime Environment
JVM: OpenJDK 64-Bit Server VM
Java Version: 11.0.6+10-post-Ubuntu-1ubuntu119.10.1
Operating System: Linux
OS Version: 5.3.0-29-generic
Default Encoding: UTF-8
Language: en
Country: US
--></g></svg>