<?xml version="1.0" encoding="UTF-8" standalone="no"?><svg xmlns="http://www.w3.org/2000/svg" xmlns:xlink="http://www.w3.org/1999/xlink" contentScriptType="application/ecmascript" contentStyleType="text/css" height="226px" preserveAspectRatio="none" style="width:410px;height:226px;" version="1.1" viewBox="0 0 410 226" width="410px" zoomAndPan="magnify"><defs><filter height="300%" id="fab5jjtwr0co9" width="300%" x="-1" y="-1"><feGaussianBlur result="blurOut" stdDeviation="2.0"/><feColorMatrix in="blurOut" result="blurOut2" type="matrix" values="0 0 0 0 0 0 0 0 0 0 0 0 0 0 0 0 0 0 .4 0"/><feOffset dx="4.0" dy="4.0" in="blurOut2" result="blurOut3"/><feBlend in="SourceGraphic" in2="blurOut3" mode="normal"/></filter></defs><g><!--class PizzaStore--><rect fill="#FEFECE" filter="url(#fab5jjtwr0co9)" height="60.8047" id="PizzaStore" style="stroke: #A80036; stroke-width: 1.5;" width="113" x="79.5" y="27"/><ellipse cx="102.6" cy="43" fill="#ADD1B2" rx="11" ry="11" style="stroke: #A80036; stroke-width: 1.0;"/><path d="M105.5688,48.6406 Q104.9906,48.9375 104.35,49.0781 Q103.7094,49.2344 103.0063,49.2344 Q100.5063,49.2344 99.1781,47.5938 Q97.8656,45.9375 97.8656,42.8125 Q97.8656,39.6875 99.1781,38.0313 Q100.5063,36.375 103.0063,36.375 Q103.7094,36.375 104.35,36.5313 Q105.0063,36.6875 105.5688,36.9844 L105.5688,39.7031 Q104.9438,39.125 104.35,38.8594 Q103.7563,38.5781 103.1313,38.5781 Q101.7875,38.5781 101.1,39.6563 Q100.4125,40.7188 100.4125,42.8125 Q100.4125,44.9063 101.1,45.9844 Q101.7875,47.0469 103.1313,47.0469 Q103.7563,47.0469 104.35,46.7813 Q104.9438,46.5 105.5688,45.9219 L105.5688,48.6406 Z "/><text fill="#000000" font-family="sans-serif" font-size="12" lengthAdjust="spacingAndGlyphs" textLength="63" x="118.4" y="47.1543">PizzaStore</text><line style="stroke: #A80036; stroke-width: 1.5;" x1="80.5" x2="191.5" y1="59" y2="59"/><line style="stroke: #A80036; stroke-width: 1.5;" x1="80.5" x2="191.5" y1="67" y2="67"/><text fill="#000000" font-family="sans-serif" font-size="11" lengthAdjust="spacingAndGlyphs" textLength="101" x="85.5" y="81.2104">orderPizza(): Pizza</text><!--class Pizza--><rect fill="#FEFECE" filter="url(#fab5jjtwr0co9)" height="99.2188" id="Pizza" style="stroke: #A80036; stroke-width: 1.5;" width="65" x="227.5" y="8"/><ellipse cx="243.85" cy="24" fill="#A9DCDF" rx="11" ry="11" style="stroke: #A80036; stroke-width: 1.0;"/><path d="M243.9594,19.3438 L242.8031,24.4219 L245.1313,24.4219 L243.9594,19.3438 Z M242.475,17.1094 L245.4594,17.1094 L248.8188,29.5 L246.3656,29.5 L245.6,26.4375 L242.3188,26.4375 L241.5688,29.5 L239.1313,29.5 L242.475,17.1094 Z "/><text fill="#000000" font-family="sans-serif" font-size="12" font-style="italic" lengthAdjust="spacingAndGlyphs" textLength="30" x="258.15" y="28.1543">Pizza</text><line style="stroke: #A80036; stroke-width: 1.5;" x1="228.5" x2="291.5" y1="40" y2="40"/><line style="stroke: #A80036; stroke-width: 1.5;" x1="228.5" x2="291.5" y1="48" y2="48"/><text fill="#000000" font-family="sans-serif" font-size="11" lengthAdjust="spacingAndGlyphs" textLength="53" x="233.5" y="62.2104">prepare()</text><text fill="#000000" font-family="sans-serif" font-size="11" lengthAdjust="spacingAndGlyphs" textLength="35" x="233.5" y="75.0151">bake()</text><text fill="#000000" font-family="sans-serif" font-size="11" lengthAdjust="spacingAndGlyphs" textLength="25" x="233.5" y="87.8198">cut()</text><text fill="#000000" font-family="sans-serif" font-size="11" lengthAdjust="spacingAndGlyphs" textLength="28" x="233.5" y="100.6245">box()</text><!--class CheesePizza--><rect fill="#FEFECE" filter="url(#fab5jjtwr0co9)" height="48" id="CheesePizza" style="stroke: #A80036; stroke-width: 1.5;" width="108" x="6" y="167"/><ellipse cx="21" cy="183" fill="#ADD1B2" rx="11" ry="11" style="stroke: #A80036; stroke-width: 1.0;"/><path d="M23.9688,188.6406 Q23.3906,188.9375 22.75,189.0781 Q22.1094,189.2344 21.4063,189.2344 Q18.9063,189.2344 17.5781,187.5938 Q16.2656,185.9375 16.2656,182.8125 Q16.2656,179.6875 17.5781,178.0313 Q18.9063,176.375 21.4063,176.375 Q22.1094,176.375 22.75,176.5313 Q23.4063,176.6875 23.9688,176.9844 L23.9688,179.7031 Q23.3438,179.125 22.75,178.8594 Q22.1563,178.5781 21.5313,178.5781 Q20.1875,178.5781 19.5,179.6563 Q18.8125,180.7188 18.8125,182.8125 Q18.8125,184.9063 19.5,185.9844 Q20.1875,187.0469 21.5313,187.0469 Q22.1563,187.0469 22.75,186.7813 Q23.3438,186.5 23.9688,185.9219 L23.9688,188.6406 Z "/><text fill="#000000" font-family="sans-serif" font-size="12" lengthAdjust="spacingAndGlyphs" textLength="76" x="35" y="187.1543">CheesePizza</text><line style="stroke: #A80036; stroke-width: 1.5;" x1="7" x2="113" y1="199" y2="199"/><line style="stroke: #A80036; stroke-width: 1.5;" x1="7" x2="113" y1="207" y2="207"/><!--class PeperoniPizza--><rect fill="#FEFECE" filter="url(#fab5jjtwr0co9)" height="48" id="PeperoniPizza" style="stroke: #A80036; stroke-width: 1.5;" width="117" x="282.5" y="167"/><ellipse cx="297.5" cy="183" fill="#ADD1B2" rx="11" ry="11" style="stroke: #A80036; stroke-width: 1.0;"/><path d="M300.4688,188.6406 Q299.8906,188.9375 299.25,189.0781 Q298.6094,189.2344 297.9063,189.2344 Q295.4063,189.2344 294.0781,187.5938 Q292.7656,185.9375 292.7656,182.8125 Q292.7656,179.6875 294.0781,178.0313 Q295.4063,176.375 297.9063,176.375 Q298.6094,176.375 299.25,176.5313 Q299.9063,176.6875 300.4688,176.9844 L300.4688,179.7031 Q299.8438,179.125 299.25,178.8594 Q298.6563,178.5781 298.0313,178.5781 Q296.6875,178.5781 296,179.6563 Q295.3125,180.7188 295.3125,182.8125 Q295.3125,184.9063 296,185.9844 Q296.6875,187.0469 298.0313,187.0469 Q298.6563,187.0469 299.25,186.7813 Q299.8438,186.5 300.4688,185.9219 L300.4688,188.6406 Z "/><text fill="#000000" font-family="sans-serif" font-size="12" lengthAdjust="spacingAndGlyphs" textLength="85" x="311.5" y="187.1543">PeperoniPizza</text><line style="stroke: #A80036; stroke-width: 1.5;" x1="283.5" x2="398.5" y1="199" y2="199"/><line style="stroke: #A80036; stroke-width: 1.5;" x1="283.5" x2="398.5" y1="207" y2="207"/><!--class GreekPizza--><rect fill="#FEFECE" filter="url(#fab5jjtwr0co9)" height="48" id="GreekPizza" style="stroke: #A80036; stroke-width: 1.5;" width="98" x="149" y="167"/><ellipse cx="164" cy="183" fill="#ADD1B2" rx="11" ry="11" style="stroke: #A80036; stroke-width: 1.0;"/><path d="M166.9688,188.6406 Q166.3906,188.9375 165.75,189.0781 Q165.1094,189.2344 164.4063,189.2344 Q161.9063,189.2344 160.5781,187.5938 Q159.2656,185.9375 159.2656,182.8125 Q159.2656,179.6875 160.5781,178.0313 Q161.9063,176.375 164.4063,176.375 Q165.1094,176.375 165.75,176.5313 Q166.4063,176.6875 166.9688,176.9844 L166.9688,179.7031 Q166.3438,179.125 165.75,178.8594 Q165.1563,178.5781 164.5313,178.5781 Q163.1875,178.5781 162.5,179.6563 Q161.8125,180.7188 161.8125,182.8125 Q161.8125,184.9063 162.5,185.9844 Q163.1875,187.0469 164.5313,187.0469 Q165.1563,187.0469 165.75,186.7813 Q166.3438,186.5 166.9688,185.9219 L166.9688,188.6406 Z "/><text fill="#000000" font-family="sans-serif" font-size="12" lengthAdjust="spacingAndGlyphs" textLength="66" x="178" y="187.1543">GreekPizza</text><line style="stroke: #A80036; stroke-width: 1.5;" x1="150" x2="246" y1="199" y2="199"/><line style="stroke: #A80036; stroke-width: 1.5;" x1="150" x2="246" y1="207" y2="207"/><!--reverse link Pizza to CheesePizza--><path d="M211.9207,105.5307 C211.2807,106.0278 210.6404,106.5178 210,107 C179.0041,130.3405 140.8074,151.6372 110.7162,166.9469 " fill="none" id="Pizza&lt;-CheesePizza" style="stroke: #A80036; stroke-width: 1.0;"/><polygon fill="none" points="207.5156,100.0867,227.248,92.3644,216.6381,110.7065,207.5156,100.0867" style="stroke: #A80036; stroke-width: 1.0;"/><!--reverse link Pizza to PeperoniPizza--><path d="M300.7738,124.7013 C309.9014,139.7449 319.0104,154.7579 326.2464,166.6838 " fill="none" id="Pizza&lt;-PeperoniPizza" style="stroke: #A80036; stroke-width: 1.0;"/><polygon fill="none" points="294.5514,127.9404,290.1614,107.2105,306.5206,120.6782,294.5514,127.9404" style="stroke: #A80036; stroke-width: 1.0;"/><!--reverse link Pizza to GreekPizza--><path d="M228.3348,125.6823 C221.5014,140.3962 214.7111,155.0172 209.2929,166.6838 " fill="none" id="Pizza&lt;-GreekPizza" style="stroke: #A80036; stroke-width: 1.0;"/><polygon fill="none" points="222.1405,122.4012,236.9135,107.2105,234.838,128.2982,222.1405,122.4012" style="stroke: #A80036; stroke-width: 1.0;"/><!--link PizzaStore to Pizza--><path d="M192.6719,57.5 C202.5262,57.5 212.3805,57.5 222.2348,57.5 " fill="none" id="PizzaStore-&gt;Pizza" style="stroke: #A80036; stroke-width: 1.0;"/><polygon fill="#A80036" points="227.3879,57.5,218.3879,53.5,222.3879,57.5,218.3879,61.5,227.3879,57.5" style="stroke: #A80036; stroke-width: 1.0;"/><!--link PizzaStore to CheesePizza--><path d="M118.5641,88.1276 C105.8808,110.4067 88.8239,140.3686 76.3903,162.2091 " fill="none" id="PizzaStore-&gt;CheesePizza" style="stroke: #A80036; stroke-width: 1.0;"/><polygon fill="#A80036" points="73.8105,166.7407,81.7393,160.8982,76.2842,162.3955,74.7869,156.9404,73.8105,166.7407" style="stroke: #A80036; stroke-width: 1.0;"/><!--link PizzaStore to GreekPizza--><path d="M150.2241,88.1276 C160.5276,110.3135 174.3694,140.118 184.5014,161.9346 " fill="none" id="PizzaStore-&gt;GreekPizza" style="stroke: #A80036; stroke-width: 1.0;"/><polygon fill="#A80036" points="186.7335,166.7407,186.5703,156.8932,184.6274,162.2059,179.3147,160.263,186.7335,166.7407" style="stroke: #A80036; stroke-width: 1.0;"/><!--link PizzaStore to PeperoniPizza--><path d="M181.3041,88.0059 C190.764,94.3192 200.6905,100.9024 210,107 C239.4833,126.311 272.9356,147.7536 298.6557,164.1407 " fill="none" id="PizzaStore-&gt;PeperoniPizza" style="stroke: #A80036; stroke-width: 1.0;"/><polygon fill="#A80036" points="303.0397,166.9326,297.5971,158.7242,298.8223,164.2468,293.2997,165.472,303.0397,166.9326" style="stroke: #A80036; stroke-width: 1.0;"/><!--
@startuml

class PizzaStore
PizzaStore : orderPizza(): Pizza

abstract class Pizza{
    prepare()
    bake()
    cut()
    box()
}
class CheesePizza extends Pizza
class PeperoniPizza extends Pizza
class GreekPizza extends Pizza

PizzaStore -> Pizza
PizzaStore -> CheesePizza
PizzaStore -> GreekPizza
PizzaStore -> PeperoniPizza


@enduml

PlantUML version 1.2019.09(Mon Aug 26 18:19:51 CEST 2019)
(GPL source distribution)
Java Runtime: OpenJDK Runtime Environment
JVM: OpenJDK 64-Bit Server VM
Java Version: 11.0.6+10-post-Ubuntu-1ubuntu119.10.1
Operating System: Linux
OS Version: 5.3.0-29-generic
Default Encoding: UTF-8
Language: en
Country: US
--></g></svg>