<?xml version="1.0" encoding="UTF-8" standalone="no"?><svg xmlns="http://www.w3.org/2000/svg" xmlns:xlink="http://www.w3.org/1999/xlink" contentScriptType="application/ecmascript" contentStyleType="text/css" height="275px" preserveAspectRatio="none" style="width:510px;height:275px;" version="1.1" viewBox="0 0 510 275" width="510px" zoomAndPan="magnify"><defs><filter height="300%" id="f1mqq7zpbrc1kb" width="300%" x="-1" y="-1"><feGaussianBlur result="blurOut" stdDeviation="2.0"/><feColorMatrix in="blurOut" result="blurOut2" type="matrix" values="0 0 0 0 0 0 0 0 0 0 0 0 0 0 0 0 0 0 .4 0"/><feOffset dx="4.0" dy="4.0" in="blurOut2" result="blurOut3"/><feBlend in="SourceGraphic" in2="blurOut3" mode="normal"/></filter></defs><g><!--class PizzaStore--><rect fill="#FEFECE" filter="url(#f1mqq7zpbrc1kb)" height="60.8047" id="PizzaStore" style="stroke: #A80036; stroke-width: 1.5;" width="113" x="6" y="76"/><ellipse cx="29.1" cy="92" fill="#ADD1B2" rx="11" ry="11" style="stroke: #A80036; stroke-width: 1.0;"/><path d="M32.0688,97.6406 Q31.4906,97.9375 30.85,98.0781 Q30.2094,98.2344 29.5063,98.2344 Q27.0063,98.2344 25.6781,96.5938 Q24.3656,94.9375 24.3656,91.8125 Q24.3656,88.6875 25.6781,87.0313 Q27.0063,85.375 29.5063,85.375 Q30.2094,85.375 30.85,85.5313 Q31.5063,85.6875 32.0688,85.9844 L32.0688,88.7031 Q31.4438,88.125 30.85,87.8594 Q30.2563,87.5781 29.6313,87.5781 Q28.2875,87.5781 27.6,88.6563 Q26.9125,89.7188 26.9125,91.8125 Q26.9125,93.9063 27.6,94.9844 Q28.2875,96.0469 29.6313,96.0469 Q30.2563,96.0469 30.85,95.7813 Q31.4438,95.5 32.0688,94.9219 L32.0688,97.6406 Z "/><text fill="#000000" font-family="sans-serif" font-size="12" lengthAdjust="spacingAndGlyphs" textLength="63" x="44.9" y="96.1543">PizzaStore</text><line style="stroke: #A80036; stroke-width: 1.5;" x1="7" x2="118" y1="108" y2="108"/><line style="stroke: #A80036; stroke-width: 1.5;" x1="7" x2="118" y1="116" y2="116"/><text fill="#000000" font-family="sans-serif" font-size="11" lengthAdjust="spacingAndGlyphs" textLength="101" x="12" y="130.2104">orderPizza(): Pizza</text><!--class SimplePizzaFactory--><rect fill="#FEFECE" filter="url(#f1mqq7zpbrc1kb)" height="48" id="SimplePizzaFactory" style="stroke: #A80036; stroke-width: 1.5;" width="148" x="154.5" y="82.5"/><ellipse cx="169.5" cy="98.5" fill="#ADD1B2" rx="11" ry="11" style="stroke: #A80036; stroke-width: 1.0;"/><path d="M172.4688,104.1406 Q171.8906,104.4375 171.25,104.5781 Q170.6094,104.7344 169.9063,104.7344 Q167.4063,104.7344 166.0781,103.0938 Q164.7656,101.4375 164.7656,98.3125 Q164.7656,95.1875 166.0781,93.5313 Q167.4063,91.875 169.9063,91.875 Q170.6094,91.875 171.25,92.0313 Q171.9063,92.1875 172.4688,92.4844 L172.4688,95.2031 Q171.8438,94.625 171.25,94.3594 Q170.6563,94.0781 170.0313,94.0781 Q168.6875,94.0781 168,95.1563 Q167.3125,96.2188 167.3125,98.3125 Q167.3125,100.4063 168,101.4844 Q168.6875,102.5469 170.0313,102.5469 Q170.6563,102.5469 171.25,102.2813 Q171.8438,102 172.4688,101.4219 L172.4688,104.1406 Z "/><text fill="#000000" font-family="sans-serif" font-size="12" lengthAdjust="spacingAndGlyphs" textLength="116" x="183.5" y="102.6543">SimplePizzaFactory</text><line style="stroke: #A80036; stroke-width: 1.5;" x1="155.5" x2="301.5" y1="114.5" y2="114.5"/><line style="stroke: #A80036; stroke-width: 1.5;" x1="155.5" x2="301.5" y1="122.5" y2="122.5"/><!--class Pizza--><rect fill="#FEFECE" filter="url(#f1mqq7zpbrc1kb)" height="99.2188" id="Pizza" style="stroke: #A80036; stroke-width: 1.5;" width="65" x="338" y="57"/><ellipse cx="354.35" cy="73" fill="#A9DCDF" rx="11" ry="11" style="stroke: #A80036; stroke-width: 1.0;"/><path d="M354.4594,68.3438 L353.3031,73.4219 L355.6313,73.4219 L354.4594,68.3438 Z M352.975,66.1094 L355.9594,66.1094 L359.3188,78.5 L356.8656,78.5 L356.1,75.4375 L352.8188,75.4375 L352.0688,78.5 L349.6313,78.5 L352.975,66.1094 Z "/><text fill="#000000" font-family="sans-serif" font-size="12" font-style="italic" lengthAdjust="spacingAndGlyphs" textLength="30" x="368.65" y="77.1543">Pizza</text><line style="stroke: #A80036; stroke-width: 1.5;" x1="339" x2="402" y1="89" y2="89"/><line style="stroke: #A80036; stroke-width: 1.5;" x1="339" x2="402" y1="97" y2="97"/><text fill="#000000" font-family="sans-serif" font-size="11" lengthAdjust="spacingAndGlyphs" textLength="53" x="344" y="111.2104">prepare()</text><text fill="#000000" font-family="sans-serif" font-size="11" lengthAdjust="spacingAndGlyphs" textLength="35" x="344" y="124.0151">bake()</text><text fill="#000000" font-family="sans-serif" font-size="11" lengthAdjust="spacingAndGlyphs" textLength="25" x="344" y="136.8198">cut()</text><text fill="#000000" font-family="sans-serif" font-size="11" lengthAdjust="spacingAndGlyphs" textLength="28" x="344" y="149.6245">box()</text><!--class CheesePizza--><rect fill="#FEFECE" filter="url(#f1mqq7zpbrc1kb)" height="48" id="CheesePizza" style="stroke: #A80036; stroke-width: 1.5;" width="108" x="105.5" y="216"/><ellipse cx="120.5" cy="232" fill="#ADD1B2" rx="11" ry="11" style="stroke: #A80036; stroke-width: 1.0;"/><path d="M123.4688,237.6406 Q122.8906,237.9375 122.25,238.0781 Q121.6094,238.2344 120.9063,238.2344 Q118.4063,238.2344 117.0781,236.5938 Q115.7656,234.9375 115.7656,231.8125 Q115.7656,228.6875 117.0781,227.0313 Q118.4063,225.375 120.9063,225.375 Q121.6094,225.375 122.25,225.5313 Q122.9063,225.6875 123.4688,225.9844 L123.4688,228.7031 Q122.8438,228.125 122.25,227.8594 Q121.6563,227.5781 121.0313,227.5781 Q119.6875,227.5781 119,228.6563 Q118.3125,229.7188 118.3125,231.8125 Q118.3125,233.9063 119,234.9844 Q119.6875,236.0469 121.0313,236.0469 Q121.6563,236.0469 122.25,235.7813 Q122.8438,235.5 123.4688,234.9219 L123.4688,237.6406 Z "/><text fill="#000000" font-family="sans-serif" font-size="12" lengthAdjust="spacingAndGlyphs" textLength="76" x="134.5" y="236.1543">CheesePizza</text><line style="stroke: #A80036; stroke-width: 1.5;" x1="106.5" x2="212.5" y1="248" y2="248"/><line style="stroke: #A80036; stroke-width: 1.5;" x1="106.5" x2="212.5" y1="256" y2="256"/><!--class PeperoniPizza--><rect fill="#FEFECE" filter="url(#f1mqq7zpbrc1kb)" height="48" id="PeperoniPizza" style="stroke: #A80036; stroke-width: 1.5;" width="117" x="382" y="216"/><ellipse cx="397" cy="232" fill="#ADD1B2" rx="11" ry="11" style="stroke: #A80036; stroke-width: 1.0;"/><path d="M399.9688,237.6406 Q399.3906,237.9375 398.75,238.0781 Q398.1094,238.2344 397.4063,238.2344 Q394.9063,238.2344 393.5781,236.5938 Q392.2656,234.9375 392.2656,231.8125 Q392.2656,228.6875 393.5781,227.0313 Q394.9063,225.375 397.4063,225.375 Q398.1094,225.375 398.75,225.5313 Q399.4063,225.6875 399.9688,225.9844 L399.9688,228.7031 Q399.3438,228.125 398.75,227.8594 Q398.1563,227.5781 397.5313,227.5781 Q396.1875,227.5781 395.5,228.6563 Q394.8125,229.7188 394.8125,231.8125 Q394.8125,233.9063 395.5,234.9844 Q396.1875,236.0469 397.5313,236.0469 Q398.1563,236.0469 398.75,235.7813 Q399.3438,235.5 399.9688,234.9219 L399.9688,237.6406 Z "/><text fill="#000000" font-family="sans-serif" font-size="12" lengthAdjust="spacingAndGlyphs" textLength="85" x="411" y="236.1543">PeperoniPizza</text><line style="stroke: #A80036; stroke-width: 1.5;" x1="383" x2="498" y1="248" y2="248"/><line style="stroke: #A80036; stroke-width: 1.5;" x1="383" x2="498" y1="256" y2="256"/><!--class GreekPizza--><rect fill="#FEFECE" filter="url(#f1mqq7zpbrc1kb)" height="48" id="GreekPizza" style="stroke: #A80036; stroke-width: 1.5;" width="98" x="248.5" y="216"/><ellipse cx="263.5" cy="232" fill="#ADD1B2" rx="11" ry="11" style="stroke: #A80036; stroke-width: 1.0;"/><path d="M266.4688,237.6406 Q265.8906,237.9375 265.25,238.0781 Q264.6094,238.2344 263.9063,238.2344 Q261.4063,238.2344 260.0781,236.5938 Q258.7656,234.9375 258.7656,231.8125 Q258.7656,228.6875 260.0781,227.0313 Q261.4063,225.375 263.9063,225.375 Q264.6094,225.375 265.25,225.5313 Q265.9063,225.6875 266.4688,225.9844 L266.4688,228.7031 Q265.8438,228.125 265.25,227.8594 Q264.6563,227.5781 264.0313,227.5781 Q262.6875,227.5781 262,228.6563 Q261.3125,229.7188 261.3125,231.8125 Q261.3125,233.9063 262,234.9844 Q262.6875,236.0469 264.0313,236.0469 Q264.6563,236.0469 265.25,235.7813 Q265.8438,235.5 266.4688,234.9219 L266.4688,237.6406 Z "/><text fill="#000000" font-family="sans-serif" font-size="12" lengthAdjust="spacingAndGlyphs" textLength="66" x="277.5" y="236.1543">GreekPizza</text><line style="stroke: #A80036; stroke-width: 1.5;" x1="249.5" x2="345.5" y1="248" y2="248"/><line style="stroke: #A80036; stroke-width: 1.5;" x1="249.5" x2="345.5" y1="256" y2="256"/><!--reverse link Pizza to CheesePizza--><path d="M322.4408,154.5578 C321.7945,155.0464 321.1474,155.5273 320.5,156 C287.2708,180.26 246.0822,201.6145 213.684,216.7215 " fill="none" id="Pizza&lt;-CheesePizza" style="stroke: #A80036; stroke-width: 1.0;"/><polygon fill="none" points="318.0699,149.0867,337.8616,141.5176,327.1099,159.7769,318.0699,149.0867" style="stroke: #A80036; stroke-width: 1.0;"/><!--reverse link Pizza to PeperoniPizza--><path d="M405.9938,174.1918 C413.7956,189.0709 421.5646,203.8876 427.7499,215.6838 " fill="none" id="Pizza&lt;-PeperoniPizza" style="stroke: #A80036; stroke-width: 1.0;"/><polygon fill="none" points="399.6536,177.1739,396.5654,156.2105,412.0525,170.6725,399.6536,177.1739" style="stroke: #A80036; stroke-width: 1.0;"/><!--reverse link Pizza to GreekPizza--><path d="M333.485,174.1918 C325.3489,189.0709 317.2469,203.8876 310.7965,215.6838 " fill="none" id="Pizza&lt;-GreekPizza" style="stroke: #A80036; stroke-width: 1.0;"/><polygon fill="none" points="327.5802,170.3999,343.3175,156.2105,339.8637,177.1168,327.5802,170.3999" style="stroke: #A80036; stroke-width: 1.0;"/><!--link PizzaStore to Pizza--><path d="M87.7531,75.8571 C104.6574,57.8644 128.5928,36.7887 155,27 C216.6768,4.1375 243.3045,-0.6255 303,27 C315.7321,32.8921 326.9406,42.5005 336.3814,53.0358 " fill="none" id="PizzaStore-&gt;Pizza" style="stroke: #A80036; stroke-width: 1.0;"/><polygon fill="#A80036" points="339.7791,56.9539,336.9047,47.5338,336.5033,53.1764,330.8607,52.7751,339.7791,56.9539" style="stroke: #A80036; stroke-width: 1.0;"/><!--reverse link PizzaStore to SimplePizzaFactory--><path d="M132.3625,106.5 C139.6537,106.5 146.9449,106.5 154.2362,106.5 " fill="none" id="PizzaStore&lt;-SimplePizzaFactory" style="stroke: #A80036; stroke-width: 1.0;"/><polygon fill="#A80036" points="119.2383,106.5,125.2383,110.5,131.2383,106.5,125.2383,102.5,119.2383,106.5" style="stroke: #A80036; stroke-width: 1.0;"/><!--link SimplePizzaFactory to Pizza--><path d="M302.5508,106.5 C312.5713,106.5 322.5919,106.5 332.6124,106.5 " fill="none" id="SimplePizzaFactory-&gt;Pizza" style="stroke: #A80036; stroke-width: 1.0;"/><polygon fill="#A80036" points="337.8525,106.5,328.8525,102.5,332.8525,106.5,328.8525,110.5,337.8525,106.5" style="stroke: #A80036; stroke-width: 1.0;"/><!--link SimplePizzaFactory to CheesePizza--><path d="M216.0046,130.6758 C204.3539,153.2175 186.957,186.8766 174.5478,210.8858 " fill="none" id="SimplePizzaFactory-&gt;CheesePizza" style="stroke: #A80036; stroke-width: 1.0;"/><polygon fill="#A80036" points="172.1356,215.5529,179.8215,209.3945,174.4315,211.1112,172.7148,205.7211,172.1356,215.5529" style="stroke: #A80036; stroke-width: 1.0;"/><!--link SimplePizzaFactory to GreekPizza--><path d="M240.9954,130.6758 C252.6461,153.2175 270.043,186.8766 282.4522,210.8858 " fill="none" id="SimplePizzaFactory-&gt;GreekPizza" style="stroke: #A80036; stroke-width: 1.0;"/><polygon fill="#A80036" points="284.8644,215.5529,284.2852,205.7211,282.5685,211.1112,277.1785,209.3945,284.8644,215.5529" style="stroke: #A80036; stroke-width: 1.0;"/><!--link SimplePizzaFactory to PeperoniPizza--><path d="M266.8916,130.6758 C303.6976,153.8532 359.1683,188.784 397.4549,212.8938 " fill="none" id="SimplePizzaFactory-&gt;PeperoniPizza" style="stroke: #A80036; stroke-width: 1.0;"/><polygon fill="#A80036" points="402.0364,215.7788,396.552,207.5982,397.8054,213.1145,392.2891,214.3679,402.0364,215.7788" style="stroke: #A80036; stroke-width: 1.0;"/><!--
@startuml

class PizzaStore
PizzaStore : orderPizza(): Pizza
class SimplePizzaFactory

abstract class Pizza{
    prepare()
    bake()
    cut()
    box()
}
class CheesePizza extends Pizza
class PeperoniPizza extends Pizza
class GreekPizza extends Pizza

PizzaStore -> Pizza
PizzaStore *- SimplePizzaFactory
SimplePizzaFactory -> Pizza
SimplePizzaFactory -> CheesePizza
SimplePizzaFactory -> GreekPizza
SimplePizzaFactory -> PeperoniPizza

@enduml

PlantUML version 1.2019.09(Mon Aug 26 18:19:51 CEST 2019)
(GPL source distribution)
Java Runtime: OpenJDK Runtime Environment
JVM: OpenJDK 64-Bit Server VM
Java Version: 11.0.6+10-post-Ubuntu-1ubuntu119.10.1
Operating System: Linux
OS Version: 5.3.0-29-generic
Default Encoding: UTF-8
Language: en
Country: US
--></g></svg>